<?xml version="1.0" encoding="UTF-8" standalone="no"?><!DOCTYPE svg PUBLIC "-//W3C//DTD SVG 1.1//EN" "http://www.w3.org/Graphics/SVG/1.1/DTD/svg11.dtd"><svg width="100%" height="100%" viewBox="0 0 508 508" version="1.1" xmlns="http://www.w3.org/2000/svg" xmlns:xlink="http://www.w3.org/1999/xlink" xml:space="preserve" xmlns:serif="http://www.serif.com/" style="fill-rule:evenodd;clip-rule:evenodd;stroke-linejoin:round;stroke-miterlimit:2;"><g id="Logo"><path id="Colour" d="M253.976,0.15c203.108,0 253.825,50.718 253.825,253.826c0,203.108 -50.717,253.825 -253.825,253.825c-203.108,0 -253.826,-50.717 -253.826,-253.825c0,-203.108 50.718,-253.826 253.826,-253.826Z" style="fill:#ddd;fill-rule:nonzero;stroke:#bfbfbf;stroke-width:0.3px;"/><g id="Biru"><path d="M320.553,253.85l82.064,-73.27l-82.15,-73.222" style="fill:none;fill-rule:nonzero;stroke:#022152;stroke-width:50px;stroke-linecap:round;stroke-miterlimit:10;"/><path d="M320.553,253.85c0,0 30.99,-27.669 54.882,-49.001c6.911,-6.17 10.861,-14.997 10.857,-24.262c-0.004,-9.265 -3.961,-18.089 -10.878,-24.253c-23.918,-21.319 -54.947,-48.976 -54.947,-48.976" style="fill:none;fill-rule:nonzero;stroke:#022152;stroke-width:50px;stroke-linecap:round;stroke-miterlimit:10;"/><path d="M110.553,402.85c0,0 29.793,-26.6 53.476,-47.746c7.269,-6.49 11.423,-15.773 11.419,-25.517c-0.004,-9.744 -4.166,-19.023 -11.44,-25.507c-23.71,-21.133 -53.541,-47.722 -53.541,-47.722" style="fill:none;fill-rule:nonzero;stroke:#022152;stroke-width:50px;stroke-linecap:round;stroke-miterlimit:10;"/><path d="M192.531,328.85c0,0 -29.842,-26.644 -53.535,-47.798c-7.254,-6.477 -11.399,-15.741 -11.395,-25.465c0.004,-9.724 4.157,-18.984 11.417,-25.455c23.719,-21.141 53.599,-47.774 53.599,-47.774" style="fill:none;fill-rule:nonzero;stroke:#022152;stroke-width:50px;stroke-linecap:round;stroke-miterlimit:10;"/><path d="M110.553,253.85c0,0 30.263,-27.02 54.034,-48.243c7.127,-6.364 11.2,-15.466 11.196,-25.02c-0.004,-9.554 -4.085,-18.653 -11.217,-25.01c-23.797,-21.211 -54.099,-48.219 -54.099,-48.219" style="fill:none;fill-rule:nonzero;stroke:#022152;stroke-width:50px;stroke-linecap:round;stroke-miterlimit:10;"/><path d="M110.553,253.85l82.064,-73.27l-82.15,-73.222" style="fill:none;fill-rule:nonzero;stroke:#022152;stroke-width:50px;stroke-linecap:round;stroke-miterlimit:10;"/><path d="M110.553,402.85l82.064,-73.27l-82.15,-73.222" style="fill:none;fill-rule:nonzero;stroke:#022152;stroke-width:50px;stroke-linecap:round;stroke-miterlimit:10;"/></g><g id="Kuning"><path d="M215.287,402.918c0,0 30.7,-27.41 54.546,-48.7c6.996,-6.247 10.995,-15.183 10.991,-24.562c-0.004,-9.38 -4.01,-18.312 -11.012,-24.553c-23.871,-21.278 -54.611,-48.677 -54.611,-48.677" style="fill:none;fill-rule:nonzero;stroke:#d9ac2a;stroke-width:50px;stroke-linecap:round;stroke-miterlimit:10;"/><path d="M215.287,402.918l82.064,-73.269l-82.15,-73.223" style="fill:none;fill-rule:nonzero;stroke:#d9ac2a;stroke-width:50px;stroke-linecap:round;stroke-miterlimit:10;"/><path d="M215.287,252.918l82.064,-73.269l-82.15,-73.223" style="fill:none;fill-rule:nonzero;stroke:#d9ac2a;stroke-width:50px;stroke-linecap:round;stroke-miterlimit:10;"/><path d="M215.287,252.918c0,0 30.343,-27.092 54.128,-48.328c7.103,-6.341 11.162,-15.412 11.158,-24.934c-0.004,-9.522 -4.071,-18.59 -11.179,-24.926c-23.811,-21.223 -54.193,-48.304 -54.193,-48.304" style="fill:none;fill-rule:nonzero;stroke:#d9ac2a;stroke-width:50px;stroke-linecap:round;stroke-miterlimit:10;"/><path d="M297.265,327.918c0,0 -29.502,-26.34 -53.128,-47.434c-7.357,-6.569 -11.562,-15.965 -11.558,-25.828c0.004,-9.863 4.217,-19.256 11.58,-25.818c23.652,-21.082 53.192,-47.412 53.192,-47.412" style="fill:none;fill-rule:nonzero;stroke:#d9ac2a;stroke-width:50px;stroke-linecap:round;stroke-miterlimit:10;"/><path d="M297.265,327.918l-82.064,-73.269l82.15,-73.223" style="fill:none;fill-rule:nonzero;stroke:#d9ac2a;stroke-width:50px;stroke-linecap:round;stroke-miterlimit:10;"/></g></g></svg>